<?xml version="1.0" encoding="UTF-8" standalone="no"?>
<!-- Created with Inkscape (http://www.inkscape.org/) -->

<svg
   width="3944.1765mm"
   height="758.15411mm"
   viewBox="0 0 3944.1765 758.15411"
   version="1.1"
   id="svg5"
   xml:space="preserve"
   inkscape:version="1.2.2 (b0a8486541, 2022-12-01)"
   sodipodi:docname="ubuntu-logo.svg"
   xmlns:inkscape="http://www.inkscape.org/namespaces/inkscape"
   xmlns:sodipodi="http://sodipodi.sourceforge.net/DTD/sodipodi-0.dtd"
   xmlns="http://www.w3.org/2000/svg"
   xmlns:svg="http://www.w3.org/2000/svg"><sodipodi:namedview
     id="namedview7"
     pagecolor="#ffffff"
     bordercolor="#666666"
     borderopacity="1.0"
     inkscape:showpageshadow="2"
     inkscape:pageopacity="0.0"
     inkscape:pagecheckerboard="0"
     inkscape:deskcolor="#d1d1d1"
     inkscape:document-units="mm"
     showgrid="false"
     inkscape:zoom="0.030302784"
     inkscape:cx="-4669.5379"
     inkscape:cy="1666.5135"
     inkscape:window-width="2256"
     inkscape:window-height="1440"
     inkscape:window-x="0"
     inkscape:window-y="0"
     inkscape:window-maximized="1"
     inkscape:current-layer="layer1" /><defs
     id="defs2" /><g
     inkscape:label="Layer 1"
     inkscape:groupmode="layer"
     id="layer1"
     transform="translate(3286.419,924.40144)"><g
       id="g144"
       transform="matrix(2.5838216,0,0,2.5838216,-1644.9398,-875.23059)"><path
         d="m 255.637,127.683 c 0,70.514 -57.165,127.68 -127.683,127.68 C 57.434,255.363 0.27,198.197 0.27,127.683 0.27,57.165 57.436,0 127.954,0 198.473,0 255.637,57.165 255.637,127.683 Z"
         fill="#dd4814"
         id="path132" /><path
         d="m 41.133,110.633 c -9.419,0 -17.05,7.631 -17.05,17.05 0,9.414 7.631,17.046 17.05,17.046 9.415,0 17.046,-7.632 17.046,-17.046 0,-9.419 -7.631,-17.05 -17.046,-17.05 z m 121.715,77.478 c -8.153,4.71 -10.95,15.13 -6.24,23.279 4.705,8.154 15.125,10.949 23.279,6.24 8.153,-4.705 10.949,-15.125 6.24,-23.28 -4.705,-8.148 -15.131,-10.943 -23.279,-6.239 z M 78.162,127.683 c 0,-16.846 8.368,-31.73 21.171,-40.742 L 86.87,66.067 c -14.914,9.97 -26.012,25.204 -30.624,43.047 5.382,4.39 8.826,11.075 8.826,18.568 0,7.489 -3.444,14.174 -8.826,18.565 4.606,17.847 15.704,33.083 30.624,43.053 L 99.333,168.42 C 86.53,159.413 78.162,144.53 78.162,127.683 Z m 49.792,-49.797 c 26.013,0 47.355,19.944 49.595,45.38 l 24.29,-0.358 c -1.194,-18.778 -9.398,-35.636 -22.002,-48.032 -6.482,2.449 -13.97,2.074 -20.44,-1.656 -6.483,-3.741 -10.548,-10.052 -11.659,-16.902 a 74.26,74.26 0 0 0 -19.785,-2.69 73.787,73.787 0 0 0 -32.819,7.663 l 11.845,21.227 a 49.596,49.596 0 0 1 20.975,-4.632 z m 0,99.59 a 49.601,49.601 0 0 1 -20.974,-4.632 l -11.845,21.225 a 73.712,73.712 0 0 0 32.82,7.671 74.04,74.04 0 0 0 19.784,-2.697 c 1.111,-6.85 5.177,-13.155 11.658,-16.902 6.476,-3.737 13.959,-4.105 20.44,-1.656 12.605,-12.396 20.808,-29.254 22.004,-48.032 l -24.297,-0.358 c -2.235,25.443 -23.576,45.38 -49.59,45.38 z M 162.842,67.245 c 8.154,4.708 18.575,1.92 23.279,-6.234 4.71,-8.154 1.92,-18.575 -6.234,-23.285 -8.154,-4.704 -18.574,-1.91 -23.285,6.244 -4.703,8.15 -1.908,18.57 6.24,23.275 z"
         fill="#ffffff"
         id="path134" /></g></g></svg>
